<svg width="237" height="68" viewBox="0 0 237 68" fill="none" xmlns="http://www.w3.org/2000/svg">
<rect width="49.653" height="47.4623" transform="matrix(0.736892 0.676011 -0.690551 0.723284 46.7742 0.087616)" fill="white" fill-opacity="0.6"/>
<rect width="49.653" height="47.4623" transform="matrix(0.736892 0.676011 -0.690551 0.723284 64.7751 0)" fill="#E5E5E5"/>
<rect width="49.653" height="47.4623" transform="matrix(0.736892 0.676011 -0.690551 0.723284 32.7751 0)" fill="white" fill-opacity="0.3"/>
<path d="M107.82 18.08C107.927 18.08 108.367 18.08 109.14 18.08C109.913 18.08 110.8 18.0867 111.8 18.1C112.813 18.1 113.727 18.1067 114.54 18.12C119.847 18.2 123.68 19.4533 126.04 21.88C128.4 24.2933 129.58 27.7867 129.58 32.36C129.58 37.16 128.32 40.8 125.8 43.28C123.293 45.76 119.413 47 114.16 47H107.82V18.08ZM111.62 21.26V43.82H114.16C116.547 43.82 118.6 43.4533 120.32 42.72C122.04 41.9733 123.36 40.7667 124.28 39.1C125.213 37.4333 125.68 35.2067 125.68 32.42C125.68 29.6333 125.227 27.4267 124.32 25.8C123.427 24.1733 122.133 23.0133 120.44 22.32C118.747 21.6133 116.707 21.26 114.32 21.26H111.62ZM143.514 53.84C140.274 53.84 137.748 53.3667 135.934 52.42C134.121 51.4867 133.214 50.1467 133.214 48.4C133.214 47.6533 133.388 47.02 133.734 46.5C134.081 45.9667 134.494 45.5267 134.974 45.18C135.454 44.8333 135.901 44.56 136.314 44.36C136.728 44.1467 136.994 43.9933 137.114 43.9C136.888 43.7667 136.601 43.6 136.254 43.4C135.921 43.2 135.628 42.9333 135.374 42.6C135.121 42.2667 134.994 41.8333 134.994 41.3C134.994 40.6467 135.294 40.0533 135.894 39.52C136.508 38.9733 137.421 38.56 138.634 38.28C137.421 37.68 136.474 36.8733 135.794 35.86C135.114 34.8333 134.774 33.7267 134.774 32.54C134.774 30.5267 135.574 28.9333 137.174 27.76C138.774 26.5867 140.974 26 143.774 26C145.121 26 146.254 26.16 147.174 26.48C148.094 26.7867 148.948 27.2267 149.734 27.8C150.028 27.68 150.521 27.4733 151.214 27.18C151.908 26.8867 152.614 26.5933 153.334 26.3C154.068 25.9933 154.628 25.7667 155.014 25.62L154.994 29.04L151.374 29.72C151.828 30.6533 152.054 31.5933 152.054 32.54C152.054 34.3667 151.334 35.9133 149.894 37.18C148.468 38.4467 146.314 39.08 143.434 39.08C143.274 39.08 143.068 39.08 142.814 39.08C142.574 39.0667 142.368 39.0533 142.194 39.04C140.768 39.08 139.788 39.24 139.254 39.52C138.734 39.8 138.474 40.1 138.474 40.42C138.474 40.8067 138.774 41.0733 139.374 41.22C139.974 41.3667 140.994 41.4933 142.434 41.6C142.954 41.6267 143.594 41.6667 144.354 41.72C145.114 41.76 145.968 41.8067 146.914 41.86C149.088 41.9933 150.761 42.5467 151.934 43.52C153.108 44.4933 153.694 45.8067 153.694 47.46C153.694 49.34 152.854 50.8733 151.174 52.06C149.494 53.2467 146.941 53.84 143.514 53.84ZM143.534 36.7C145.028 36.7 146.228 36.3533 147.134 35.66C148.054 34.9667 148.514 33.94 148.514 32.58C148.514 31.1933 148.054 30.1333 147.134 29.4C146.228 28.6533 145.028 28.28 143.534 28.28C142.028 28.28 140.808 28.6533 139.874 29.4C138.954 30.1333 138.494 31.1933 138.494 32.58C138.494 33.8867 138.934 34.9 139.814 35.62C140.694 36.34 141.934 36.7 143.534 36.7ZM144.174 51.46C146.081 51.46 147.541 51.1733 148.554 50.6C149.568 50.0267 150.074 49.16 150.074 48C150.074 47.1867 149.761 46.5133 149.134 45.98C148.521 45.4467 147.581 45.14 146.314 45.06L140.514 44.68C139.994 44.6533 139.454 44.7867 138.894 45.08C138.334 45.36 137.854 45.7533 137.454 46.26C137.068 46.7667 136.874 47.34 136.874 47.98C136.874 49.0867 137.468 49.94 138.654 50.54C139.841 51.1533 141.681 51.46 144.174 51.46ZM159.638 47V26.32H163.158V30.3C163.678 28.82 164.498 27.72 165.618 27C166.751 26.28 167.971 25.92 169.278 25.92C169.585 25.92 169.878 25.94 170.158 25.98C170.451 26.02 170.685 26.0867 170.858 26.18V29.76C170.658 29.6667 170.398 29.6067 170.078 29.58C169.771 29.54 169.511 29.52 169.298 29.52C167.658 29.4133 166.251 29.7267 165.078 30.46C163.905 31.1933 163.318 32.42 163.318 34.14V47H159.638ZM179.226 18.1V21.94H175.446V18.1H179.226ZM179.146 26.32V47H175.566V26.32H179.146ZM193.114 47.4C190.42 47.4 188.287 46.48 186.714 44.64C185.154 42.8 184.374 40.1133 184.374 36.58C184.374 33.3533 185.08 30.7733 186.494 28.84C187.92 26.8933 190.034 25.92 192.834 25.92C194.14 25.92 195.254 26.1333 196.174 26.56C197.107 26.9867 197.854 27.4867 198.414 28.06C198.987 28.6333 199.387 29.1467 199.614 29.6V17.28H203.334V47H200.514L200.114 42.76C199.94 43.2933 199.614 43.9267 199.134 44.66C198.654 45.3933 197.934 46.0333 196.974 46.58C196.014 47.1267 194.727 47.4 193.114 47.4ZM193.774 44.56C195.867 44.56 197.36 43.9267 198.254 42.66C199.16 41.38 199.614 39.2933 199.614 36.4C199.587 33.9867 199.134 32.12 198.254 30.8C197.374 29.4667 195.907 28.8 193.854 28.8C192.16 28.8 190.774 29.4067 189.694 30.62C188.627 31.82 188.094 33.7467 188.094 36.4C188.094 38.9867 188.574 40.9933 189.534 42.42C190.507 43.8467 191.92 44.56 193.774 44.56Z" fill="#FFFEFE"/>
</svg>
