<svg width="981" height="752" viewBox="0 0 981 752" fill="none" xmlns="http://www.w3.org/2000/svg">
<g clip-path="url(#clip0)">
<path d="M315.494 117H313.494V224H315.494V117Z" fill="white"/>
<path d="M315.494 255.85H313.494V350H315.494V255.85Z" fill="white"/>
<path d="M465.494 365H310.494V367H465.494V365Z" fill="white"/>
<path d="M246.494 392H244.494V477H246.494V392Z" fill="white"/>
<path d="M497.494 492H262.494V494H497.494V492Z" fill="white"/>
<path d="M693.494 48.9998H691.494V150H693.494V48.9998Z" fill="white"/>
<path d="M676.494 166H529.46V168H676.494V166Z" fill="white"/>
<path d="M514.494 182H512.494V317H514.494V182Z" fill="white"/>
<path d="M314.494 257C311.132 257 307.845 256.003 305.049 254.135C302.254 252.267 300.075 249.612 298.788 246.505C297.501 243.399 297.165 239.981 297.821 236.683C298.477 233.386 300.096 230.357 302.473 227.979C304.851 225.602 307.88 223.982 311.178 223.327C314.475 222.671 317.893 223.007 321 224.294C324.106 225.581 326.761 227.76 328.629 230.555C330.497 233.351 331.494 236.638 331.494 240C331.489 244.507 329.696 248.828 326.509 252.015C323.322 255.202 319.001 256.995 314.494 257V257ZM314.494 225C311.527 225 308.627 225.88 306.161 227.528C303.694 229.176 301.771 231.519 300.636 234.26C299.501 237 299.204 240.016 299.782 242.926C300.361 245.836 301.79 248.509 303.888 250.606C305.985 252.704 308.658 254.133 311.568 254.712C314.477 255.29 317.493 254.993 320.234 253.858C322.975 252.723 325.318 250.8 326.966 248.333C328.614 245.867 329.494 242.967 329.494 240C329.49 236.023 327.908 232.21 325.096 229.398C322.284 226.586 318.471 225.004 314.494 225V225Z" fill="white"/>
<path d="M246.494 510C243.132 510 239.845 509.003 237.049 507.135C234.254 505.267 232.075 502.612 230.788 499.505C229.501 496.399 229.165 492.981 229.821 489.683C230.477 486.386 232.096 483.357 234.473 480.979C236.851 478.602 239.88 476.982 243.178 476.327C246.475 475.671 249.893 476.007 253 477.294C256.106 478.581 258.761 480.76 260.629 483.555C262.497 486.351 263.494 489.638 263.494 493C263.489 497.507 261.696 501.828 258.509 505.015C255.322 508.202 251.001 509.995 246.494 510V510ZM246.494 478C243.527 478 240.627 478.88 238.161 480.528C235.694 482.176 233.771 484.519 232.636 487.26C231.501 490 231.204 493.017 231.782 495.926C232.361 498.836 233.79 501.509 235.888 503.606C237.985 505.704 240.658 507.133 243.568 507.712C246.477 508.29 249.493 507.993 252.234 506.858C254.975 505.723 257.318 503.8 258.966 501.333C260.614 498.867 261.494 495.967 261.494 493C261.49 489.023 259.908 485.21 257.096 482.398C254.284 479.586 250.471 478.004 246.494 478V478Z" fill="white"/>
<path d="M315.494 382C324.33 382 331.494 374.837 331.494 366C331.494 357.163 324.33 350 315.494 350C306.657 350 299.494 357.163 299.494 366C299.494 374.837 306.657 382 315.494 382Z" fill="#F9F9FF"/>
<path d="M894.494 239H728.494V241H894.494V239Z" fill="white"/>
<path d="M713.494 255.85H711.494V350H713.494V255.85Z" fill="white"/>
<path d="M695.494 365H562.494V367H695.494V365Z" fill="white"/>
<path d="M934.494 374H796.494V376H934.494V374Z" fill="white"/>
<path d="M782.494 392H780.494V477H782.494V392Z" fill="white"/>
<path d="M764.494 492H529.494V494H764.494V492Z" fill="white"/>
<path d="M514.494 415H512.494V477H514.494V415Z" fill="white"/>
<path d="M712.494 256C721.33 256 728.494 248.837 728.494 240C728.494 231.163 721.33 224 712.494 224C703.657 224 696.494 231.163 696.494 240C696.494 248.837 703.657 256 712.494 256Z" fill="#F9F9FF"/>
<path d="M692.494 183C689.132 183 685.845 182.003 683.049 180.135C680.254 178.267 678.075 175.612 676.788 172.505C675.502 169.399 675.165 165.981 675.821 162.683C676.477 159.386 678.096 156.357 680.473 153.979C682.851 151.602 685.88 149.982 689.178 149.327C692.475 148.671 695.893 149.007 699 150.294C702.106 151.581 704.761 153.76 706.629 156.555C708.497 159.351 709.494 162.638 709.494 166C709.489 170.507 707.696 174.828 704.509 178.015C701.322 181.202 697.001 182.995 692.494 183V183ZM692.494 151C689.527 151 686.627 151.88 684.161 153.528C681.694 155.176 679.771 157.519 678.636 160.26C677.501 163 677.204 166.017 677.782 168.926C678.361 171.836 679.79 174.509 681.888 176.606C683.985 178.704 686.658 180.133 689.568 180.712C692.478 181.29 695.494 180.993 698.234 179.858C700.975 178.723 703.318 176.8 704.966 174.333C706.614 171.867 707.494 168.967 707.494 166C707.49 162.023 705.908 158.21 703.096 155.398C700.284 152.586 696.471 151.004 692.494 151V151Z" fill="white"/>
<path d="M513.494 183C510.132 183 506.845 182.003 504.049 180.135C501.254 178.267 499.075 175.612 497.788 172.505C496.501 169.399 496.165 165.981 496.821 162.683C497.477 159.386 499.096 156.357 501.473 153.979C503.851 151.602 506.88 149.982 510.178 149.327C513.475 148.671 516.893 149.007 520 150.294C523.106 151.581 525.761 153.76 527.629 156.555C529.497 159.351 530.494 162.638 530.494 166C530.489 170.507 528.696 174.828 525.509 178.015C522.322 181.202 518.001 182.995 513.494 183V183ZM513.494 151C510.527 151 507.627 151.88 505.161 153.528C502.694 155.176 500.771 157.519 499.636 160.26C498.501 163 498.204 166.017 498.782 168.926C499.361 171.836 500.79 174.509 502.888 176.606C504.985 178.704 507.658 180.133 510.568 180.712C513.477 181.29 516.494 180.993 519.234 179.858C521.975 178.723 524.318 176.8 525.966 174.333C527.614 171.867 528.494 168.967 528.494 166C528.49 162.023 526.908 158.21 524.096 155.398C521.284 152.586 517.471 151.004 513.494 151V151Z" fill="white"/>
<path d="M780.494 393C777.132 393 773.845 392.003 771.049 390.135C768.254 388.267 766.075 385.612 764.788 382.505C763.502 379.399 763.165 375.981 763.821 372.683C764.477 369.386 766.096 366.357 768.473 363.979C770.851 361.602 773.88 359.982 777.178 359.327C780.475 358.671 783.893 359.007 787 360.294C790.106 361.581 792.761 363.76 794.629 366.555C796.497 369.351 797.494 372.638 797.494 376C797.489 380.507 795.696 384.828 792.509 388.015C789.322 391.202 785.001 392.995 780.494 393V393ZM780.494 361C777.527 361 774.627 361.88 772.161 363.528C769.694 365.176 767.771 367.519 766.636 370.26C765.501 373 765.204 376.016 765.782 378.926C766.361 381.836 767.79 384.509 769.888 386.606C771.985 388.704 774.658 390.133 777.568 390.712C780.478 391.29 783.494 390.993 786.234 389.858C788.975 388.723 791.318 386.8 792.966 384.333C794.614 381.867 795.494 378.967 795.494 376C795.49 372.023 793.908 368.21 791.096 365.398C788.284 362.586 784.471 361.004 780.494 361V361Z" fill="white"/>
<path d="M780.494 509C789.33 509 796.494 501.837 796.494 493C796.494 484.163 789.33 477 780.494 477C771.657 477 764.494 484.163 764.494 493C764.494 501.837 771.657 509 780.494 509Z" fill="#F9F9FF"/>
<path d="M513.494 510C510.132 510 506.845 509.003 504.049 507.135C501.254 505.267 499.075 502.612 497.788 499.505C496.501 496.399 496.165 492.981 496.821 489.683C497.477 486.386 499.096 483.357 501.473 480.979C503.851 478.602 506.88 476.982 510.178 476.327C513.475 475.671 516.893 476.007 520 477.294C523.106 478.581 525.761 480.76 527.629 483.555C529.497 486.351 530.494 489.638 530.494 493C530.489 497.507 528.696 501.828 525.509 505.015C522.322 508.202 518.001 509.995 513.494 510V510ZM513.494 478C510.527 478 507.627 478.88 505.161 480.528C502.694 482.176 500.771 484.519 499.636 487.26C498.501 490 498.204 493.017 498.782 495.926C499.361 498.836 500.79 501.509 502.888 503.606C504.985 505.704 507.658 507.133 510.568 507.712C513.477 508.29 516.494 507.993 519.234 506.858C521.975 505.723 524.318 503.8 525.966 501.333C527.614 498.867 528.494 495.967 528.494 493C528.49 489.023 526.908 485.21 524.096 482.398C521.284 479.586 517.471 478.004 513.494 478V478Z" fill="white"/>
<path d="M711.494 383C708.132 383 704.845 382.003 702.049 380.135C699.254 378.267 697.075 375.612 695.788 372.505C694.502 369.399 694.165 365.981 694.821 362.683C695.477 359.386 697.096 356.357 699.473 353.979C701.851 351.602 704.88 349.982 708.178 349.327C711.475 348.671 714.893 349.007 718 350.294C721.106 351.581 723.761 353.76 725.629 356.555C727.497 359.351 728.494 362.638 728.494 366C728.489 370.507 726.696 374.828 723.509 378.015C720.322 381.202 716.001 382.995 711.494 383V383ZM711.494 351C708.527 351 705.627 351.88 703.161 353.528C700.694 355.176 698.771 357.519 697.636 360.26C696.501 363 696.204 366.016 696.782 368.926C697.361 371.836 698.79 374.509 700.888 376.606C702.985 378.704 705.658 380.133 708.568 380.712C711.478 381.29 714.494 380.993 717.234 379.858C719.975 378.723 722.318 376.8 723.966 374.333C725.614 371.867 726.494 368.967 726.494 366C726.49 362.023 724.908 358.21 722.096 355.398C719.284 352.586 715.471 351.004 711.494 351V351Z" fill="white"/>
<path d="M246.494 342C242.538 342 238.671 343.173 235.382 345.371C232.093 347.568 229.53 350.692 228.016 354.346C226.502 358.001 226.106 362.022 226.878 365.902C227.65 369.781 229.555 373.345 232.352 376.142C235.149 378.939 238.712 380.844 242.592 381.616C246.472 382.387 250.493 381.991 254.147 380.478C257.802 378.964 260.926 376.4 263.123 373.111C265.321 369.822 266.494 365.956 266.494 362C266.478 356.7 264.366 351.622 260.619 347.875C256.871 344.128 251.793 342.016 246.494 342V342ZM246.494 348C247.681 348 248.841 348.352 249.827 349.011C250.814 349.67 251.583 350.608 252.037 351.704C252.491 352.8 252.61 354.007 252.379 355.171C252.147 356.334 251.576 357.404 250.736 358.243C249.897 359.082 248.828 359.653 247.664 359.885C246.5 360.116 245.294 359.997 244.198 359.543C243.101 359.089 242.164 358.32 241.505 357.333C240.846 356.347 240.494 355.187 240.494 354C240.499 352.41 241.133 350.887 242.257 349.763C243.381 348.639 244.904 348.005 246.494 348V348ZM246.494 376.885C244.124 376.874 241.792 376.285 239.701 375.169C237.61 374.053 235.822 372.444 234.494 370.481C234.59 366.481 242.494 364.279 246.494 364.279C250.494 364.279 258.398 366.481 258.494 370.481C257.164 372.442 255.376 374.05 253.285 375.166C251.195 376.282 248.864 376.872 246.494 376.885V376.885Z" fill="#6C63FF"/>
<path d="M315.494 69C311.538 69 307.671 70.173 304.382 72.3706C301.093 74.5682 298.53 77.6918 297.016 81.3463C295.502 85.0009 295.106 89.0222 295.878 92.9018C296.65 96.7814 298.555 100.345 301.352 103.142C304.149 105.939 307.712 107.844 311.592 108.616C315.472 109.387 319.493 108.991 323.147 107.478C326.802 105.964 329.926 103.4 332.123 100.111C334.321 96.8224 335.494 92.9556 335.494 89C335.478 83.7004 333.366 78.6224 329.619 74.875C325.871 71.1276 320.793 69.0155 315.494 69V69ZM315.494 75C316.681 75 317.841 75.3519 318.827 76.0112C319.814 76.6705 320.583 77.6075 321.037 78.7039C321.491 79.8003 321.61 81.0067 321.379 82.1705C321.147 83.3344 320.576 84.4035 319.736 85.2426C318.897 86.0818 317.828 86.6532 316.664 86.8847C315.5 87.1162 314.294 86.9974 313.198 86.5433C312.101 86.0891 311.164 85.3201 310.505 84.3334C309.846 83.3467 309.494 82.1867 309.494 81C309.499 79.4103 310.133 77.8873 311.257 76.7632C312.381 75.6392 313.904 75.0053 315.494 75V75ZM315.494 103.885C313.124 103.874 310.792 103.285 308.701 102.169C306.61 101.053 304.822 99.4438 303.494 97.4808C303.59 93.4808 311.494 91.2789 315.494 91.2789C319.494 91.2789 327.398 93.4808 327.494 97.4808C326.164 99.4423 324.376 101.05 322.285 102.166C320.195 103.282 317.864 103.872 315.494 103.885V103.885Z" fill="#6C63FF"/>
<path d="M692.494 0C688.538 0 684.671 1.17298 681.382 3.37061C678.093 5.56824 675.53 8.69181 674.016 12.3463C672.503 16.0009 672.106 20.0222 672.878 23.9018C673.65 27.7814 675.555 31.3451 678.352 34.1421C681.149 36.9392 684.712 38.844 688.592 39.6157C692.472 40.3874 696.493 39.9913 700.148 38.4776C703.802 36.9638 706.926 34.4004 709.123 31.1114C711.321 27.8224 712.494 23.9556 712.494 20C712.478 14.7004 710.366 9.62237 706.619 5.875C702.872 2.12763 697.793 0.0155124 692.494 0V0ZM692.494 6C693.681 6 694.841 6.3519 695.827 7.01118C696.814 7.67047 697.583 8.60755 698.037 9.7039C698.491 10.8003 698.61 12.0067 698.379 13.1705C698.147 14.3344 697.576 15.4035 696.737 16.2426C695.897 17.0818 694.828 17.6532 693.664 17.8847C692.501 18.1162 691.294 17.9974 690.198 17.5433C689.101 17.0892 688.164 16.3201 687.505 15.3334C686.846 14.3467 686.494 13.1867 686.494 12C686.499 10.4103 687.133 8.88729 688.257 7.76322C689.381 6.63915 690.904 6.00531 692.494 6V6ZM692.494 34.8846C690.124 34.8738 687.792 34.2849 685.701 33.169C683.61 32.053 681.822 30.4438 680.494 28.4808C680.59 24.4808 688.494 22.2789 692.494 22.2789C696.494 22.2789 704.398 24.4808 704.494 28.4808C703.164 30.4423 701.376 32.0504 699.286 33.1662C697.195 34.2819 694.864 34.8717 692.494 34.8846Z" fill="#6C63FF"/>
<path d="M922.494 219C918.538 219 914.671 220.173 911.382 222.371C908.093 224.568 905.53 227.692 904.016 231.346C902.503 235.001 902.106 239.022 902.878 242.902C903.65 246.781 905.555 250.345 908.352 253.142C911.149 255.939 914.712 257.844 918.592 258.616C922.472 259.387 926.493 258.991 930.148 257.478C933.802 255.964 936.926 253.4 939.123 250.111C941.321 246.822 942.494 242.956 942.494 239C942.478 233.7 940.366 228.622 936.619 224.875C932.872 221.128 927.793 219.016 922.494 219ZM922.494 225C923.681 225 924.841 225.352 925.827 226.011C926.814 226.67 927.583 227.608 928.037 228.704C928.491 229.8 928.61 231.007 928.379 232.171C928.147 233.334 927.576 234.404 926.736 235.243C925.897 236.082 924.828 236.653 923.664 236.885C922.501 237.116 921.294 236.997 920.198 236.543C919.101 236.089 918.164 235.32 917.505 234.333C916.846 233.347 916.494 232.187 916.494 231C916.499 229.41 917.133 227.887 918.257 226.763C919.381 225.639 920.904 225.005 922.494 225ZM922.494 253.885C920.124 253.874 917.792 253.285 915.701 252.169C913.61 251.053 911.822 249.444 910.494 247.481C910.59 243.481 918.494 241.279 922.494 241.279C926.494 241.279 934.398 243.481 934.494 247.481C933.164 249.442 931.376 251.05 929.286 252.166C927.195 253.282 924.864 253.872 922.494 253.885V253.885Z" fill="#6C63FF"/>
<path d="M960.494 354C956.538 354 952.671 355.173 949.382 357.371C946.094 359.568 943.53 362.692 942.016 366.346C940.503 370.001 940.107 374.022 940.878 377.902C941.65 381.781 943.555 385.345 946.352 388.142C949.149 390.939 952.712 392.844 956.592 393.616C960.472 394.387 964.493 393.991 968.148 392.478C971.802 390.964 974.926 388.4 977.123 385.111C979.321 381.822 980.494 377.956 980.494 374C980.478 368.7 978.366 363.622 974.619 359.875C970.872 356.128 965.793 354.016 960.494 354V354ZM960.494 360C961.681 360 962.841 360.352 963.827 361.011C964.814 361.67 965.583 362.608 966.037 363.704C966.491 364.8 966.61 366.007 966.379 367.171C966.147 368.334 965.576 369.404 964.736 370.243C963.897 371.082 962.828 371.653 961.664 371.885C960.501 372.116 959.294 371.997 958.198 371.543C957.101 371.089 956.164 370.32 955.505 369.333C954.846 368.347 954.494 367.187 954.494 366C954.499 364.41 955.133 362.887 956.257 361.763C957.381 360.639 958.904 360.005 960.494 360V360ZM960.494 388.885C958.124 388.874 955.792 388.285 953.701 387.169C951.61 386.053 949.822 384.444 948.494 382.481C948.59 378.481 956.494 376.279 960.494 376.279C964.494 376.279 972.398 378.481 972.494 382.481C971.164 384.442 969.376 386.05 967.286 387.166C965.195 388.282 962.864 388.872 960.494 388.885V388.885Z" fill="#6C63FF"/>
<path d="M152 733.294C149.154 759.17 -0.226103 756.998 0.000256996 733.292C2.84564 707.418 152.226 709.59 152 733.294Z" fill="#E6E6E6"/>
<path d="M103.754 668.156L109.81 681.276L120.911 680.267L127.976 657.054L116.874 650.999L103.754 668.156Z" fill="#FFB8B8"/>
<path d="M65.642 698.373L65.403 707.516L82.56 708.525V697.424L65.642 698.373Z" fill="#FFB8B8"/>
<path d="M71.458 531.908L75.495 612.647L65.403 700.451L95.68 704.488L114.856 593.472L120.911 517.778L71.458 531.908Z" fill="#2F2E41"/>
<path d="M24.0239 502.64C24.0239 502.64 11.913 582.37 37.1441 608.61C62.3752 634.851 96.6895 681.276 96.6895 681.276L120.911 650.999L59.3475 585.398L71.4584 540.991L120.911 517.778L112.837 462.27L40.1718 461.261L24.0239 502.64Z" fill="#2F2E41"/>
<path d="M83.5693 317.948C95.8319 317.948 105.773 308.007 105.773 295.744C105.773 283.482 95.8319 273.541 83.5693 273.541C71.3068 273.541 61.366 283.482 61.366 295.744C61.366 308.007 71.3068 317.948 83.5693 317.948Z" fill="#FFB8B8"/>
<path d="M64.3937 300.791C64.3937 300.791 63.3845 332.077 58.3382 336.114C53.292 340.151 76.5046 357.308 76.5046 357.308L91.6433 333.087V310.883L64.3937 300.791Z" fill="#FFB8B8"/>
<path d="M74.486 343.179L62.233 324.677L55.31 334.096L45.218 362.355L53.292 472.362L100.726 473.371L106.782 347.216L91.643 329.05L74.486 343.179Z" fill="#D0CDE1"/>
<path d="M125.958 350.244L134.032 349.234C134.032 349.234 136.05 350.244 137.059 357.308C138.069 364.373 150.179 426.946 150.179 426.946L134.032 503.649L115.865 479.427L126.967 437.039L115.865 394.65L125.958 350.244Z" fill="#2F2E41"/>
<path d="M23.015 349.234H16.959L1.82101 430.983L15.95 494.566L30.079 471.353L26.042 446.122L28.061 423.919L35.126 410.798L23.015 349.234Z" fill="#2F2E41"/>
<path d="M112.837 677.239C112.837 677.239 106.782 675.22 106.782 679.257C106.782 683.294 110.819 695.405 110.819 695.405C110.819 695.405 104.763 732.747 113.847 730.729C122.93 728.71 129.995 711.553 131.004 706.507C132.013 701.461 137.059 675.22 137.059 675.22C137.059 675.22 145.133 656.045 140.087 655.035C135.041 654.026 120.911 649.989 120.911 649.989C120.911 649.989 128.985 675.22 112.837 677.239Z" fill="#2F2E41"/>
<path d="M83.5693 708.525C83.5693 708.525 67.4214 698.433 64.3937 706.507C62.3857 712.396 61.0318 718.488 60.3567 724.673C60.3567 724.673 56.3197 737.793 72.4676 735.775C88.6156 733.757 86.5971 733.756 87.6063 727.701C88.6156 721.645 83.5693 708.525 83.5693 708.525Z" fill="#2F2E41"/>
<path d="M70.4492 295.745L74.4862 294.735C74.4862 294.735 77.5139 277.578 84.5786 279.597C91.6433 281.615 109.81 283.634 109.81 275.56C109.81 267.486 92.6526 260.421 82.5601 261.43C72.4677 262.439 55.3105 265.467 56.3198 280.606C57.329 295.744 63.8414 310.471 63.8414 310.471L64.3674 301.496L70.4492 295.745Z" fill="#2F2E41"/>
<path d="M91.643 355.29L74.486 343.179L91.643 329.05L97.6 336.197L91.643 355.29Z" fill="#D0CDE1"/>
<path d="M59.347 354.281L74.486 343.179L62.375 325.013L55.31 334.096L59.347 354.281Z" fill="#D0CDE1"/>
<path d="M133.022 349.234L100.726 336.114L93.1572 330.563L70.4491 430.983L55.3105 385.567L59.8521 327.536L17.9684 349.234L32.0979 417.863L34.1164 444.103L28.0609 465.298C28.0609 465.298 6.86678 480.436 13.9315 496.584C20.9962 512.732 29.0702 513.741 29.0702 513.741C29.0702 513.741 63.3845 481.445 65.403 473.371C67.4214 465.298 70.4492 451.168 70.4492 451.168C70.4492 451.168 87.6063 515.76 107.791 514.751C127.976 513.741 127.976 492.547 127.976 492.547L122.93 470.344L114.856 447.131L118.893 408.78L133.022 349.234Z" fill="#2F2E41"/>
<ellipse cx="513.5" cy="363.5" rx="32.5" ry="30.5" fill="#6C63FF"/>
<path d="M512.44 378.4C509.893 378.4 507.7 377.82 505.86 376.66C504.033 375.5 502.627 373.82 501.64 371.62C500.653 369.407 500.16 366.74 500.16 363.62C500.16 360.473 500.667 357.787 501.68 355.56C502.693 353.333 504.127 351.633 505.98 350.46C507.847 349.273 510.053 348.68 512.6 348.68C514.053 348.68 515.42 348.933 516.7 349.44C517.98 349.947 519.113 350.64 520.1 351.52C521.087 352.4 521.873 353.4 522.46 354.52C523.06 355.627 523.4 356.787 523.48 358H519.52C519.333 356.933 518.92 355.94 518.28 355.02C517.64 354.1 516.827 353.36 515.84 352.8C514.867 352.24 513.767 351.96 512.54 351.96C510.047 351.96 508.027 352.893 506.48 354.76C504.933 356.627 504.16 359.553 504.16 363.54C504.16 366.287 504.527 368.507 505.26 370.2C506.007 371.893 507.02 373.127 508.3 373.9C509.58 374.673 511.027 375.06 512.64 375.06C514.253 375.06 515.593 374.7 516.66 373.98C517.727 373.26 518.533 372.38 519.08 371.34C519.64 370.3 519.94 369.3 519.98 368.34L520.1 365.78H513.06V363.06L523.94 363.08V378H521.16V373.6C520.653 374.427 520.007 375.207 519.22 375.94C518.447 376.673 517.5 377.267 516.38 377.72C515.273 378.173 513.96 378.4 512.44 378.4Z" fill="white"/>
<g filter="url(#filter0_d)">
<rect x="262.862" y="550" width="100" height="83" transform="rotate(19.6446 262.862 550)" fill="#6C63FF"/>
</g>
<line x1="247.53" y1="631.224" x2="274.53" y2="556.224" stroke="white"/>
<line x1="261.174" y1="565.925" x2="350.174" y2="598.925" stroke="white"/>
<line x1="255.174" y1="581.925" x2="344.174" y2="614.925" stroke="white"/>
<line x1="248.174" y1="597.925" x2="337.174" y2="630.925" stroke="white"/>
<line x1="242.174" y1="612.925" x2="331.174" y2="645.925" stroke="white"/>
<line x1="261.53" y1="636.224" x2="288.53" y2="561.224" stroke="white"/>
<line x1="274.53" y1="641.224" x2="301.53" y2="566.224" stroke="white"/>
<line x1="302.53" y1="651.224" x2="329.53" y2="576.224" stroke="white"/>
<line x1="316.53" y1="657.224" x2="343.53" y2="582.224" stroke="white"/>
<line x1="288.53" y1="646.224" x2="315.53" y2="571.224" stroke="white"/>
<path d="M242.767 689.644C241.858 689.644 241.021 689.502 240.254 689.219C239.487 688.935 238.846 688.502 238.329 687.919C237.821 687.327 237.504 686.565 237.379 685.631H239.479C239.646 686.39 240.025 686.96 240.617 687.344C241.217 687.727 241.929 687.919 242.754 687.919C243.621 687.919 244.321 687.756 244.854 687.431C245.387 687.106 245.654 686.606 245.654 685.931C245.654 685.023 245.083 684.431 243.942 684.156L241.267 683.494C240.217 683.244 239.379 682.852 238.754 682.319C238.137 681.785 237.829 681.04 237.829 680.081C237.821 678.948 238.229 678.023 239.054 677.306C239.879 676.581 241.112 676.219 242.754 676.219C244.154 676.219 245.283 676.535 246.142 677.169C247.008 677.802 247.458 678.723 247.492 679.931H245.454C245.362 679.315 245.083 678.827 244.617 678.469C244.15 678.102 243.521 677.919 242.729 677.919C241.904 677.919 241.233 678.085 240.717 678.419C240.2 678.744 239.942 679.252 239.942 679.944C239.942 680.402 240.125 680.765 240.492 681.031C240.858 681.29 241.4 681.506 242.117 681.681L244.704 682.331C245.496 682.54 246.112 682.835 246.554 683.219C246.996 683.602 247.304 684.023 247.479 684.481C247.654 684.94 247.742 685.381 247.742 685.806C247.742 686.998 247.304 687.935 246.429 688.619C245.554 689.302 244.333 689.644 242.767 689.644ZM256.11 689.644C254.318 689.644 252.88 689.073 251.797 687.931C250.714 686.79 250.172 685.14 250.172 682.981C250.172 681.631 250.401 680.448 250.86 679.431C251.318 678.415 251.989 677.627 252.872 677.069C253.755 676.502 254.835 676.219 256.11 676.219C257.893 676.219 259.318 676.802 260.385 677.969C261.451 679.135 261.985 680.806 261.985 682.981C261.985 684.298 261.76 685.456 261.31 686.456C260.868 687.456 260.21 688.24 259.335 688.806C258.468 689.365 257.393 689.644 256.11 689.644ZM256.11 687.819C257.268 687.819 258.155 687.385 258.772 686.519C259.389 685.644 259.697 684.448 259.697 682.931C259.697 682.006 259.572 681.177 259.322 680.444C259.08 679.702 258.697 679.115 258.172 678.681C257.647 678.248 256.96 678.031 256.11 678.031C254.935 678.031 254.035 678.465 253.41 679.331C252.785 680.19 252.472 681.39 252.472 682.931C252.472 683.84 252.597 684.665 252.847 685.406C253.097 686.148 253.489 686.735 254.022 687.169C254.555 687.602 255.251 687.819 256.11 687.819ZM268.273 689.556C267.339 689.556 266.639 689.394 266.173 689.069C265.706 688.735 265.393 688.306 265.235 687.781C265.085 687.248 265.01 686.677 265.01 686.069V670.819H267.285V685.844C267.285 686.502 267.41 686.994 267.66 687.319C267.918 687.635 268.277 687.81 268.735 687.844L269.435 687.856V689.356C269.018 689.49 268.631 689.556 268.273 689.556ZM275.909 689.644C274.651 689.644 273.626 689.315 272.834 688.656C272.043 687.998 271.647 687.077 271.647 685.894C271.647 684.46 272.147 683.394 273.147 682.694C274.147 681.994 275.751 681.619 277.959 681.569L280.272 681.506V680.494C280.272 679.702 280.03 679.077 279.547 678.619C279.072 678.152 278.339 677.919 277.347 677.919C276.605 677.927 275.951 678.106 275.384 678.456C274.818 678.798 274.455 679.352 274.297 680.119H272.259C272.326 678.86 272.818 677.898 273.734 677.231C274.651 676.556 275.893 676.219 277.459 676.219C279.143 676.219 280.401 676.573 281.234 677.281C282.076 677.99 282.497 679.019 282.497 680.369V689.394H280.522L280.359 686.969C279.851 687.977 279.214 688.677 278.447 689.069C277.68 689.452 276.834 689.644 275.909 689.644ZM276.609 687.981C277.184 687.981 277.751 687.844 278.309 687.569C278.876 687.294 279.343 686.944 279.709 686.519C280.076 686.085 280.264 685.627 280.272 685.144V682.931L278.347 682.969C276.864 682.994 275.751 683.215 275.009 683.631C274.268 684.04 273.897 684.719 273.897 685.669C273.897 686.402 274.147 686.973 274.647 687.381C275.155 687.781 275.809 687.981 276.609 687.981ZM286.446 689.394V676.469H288.646V678.956C288.971 678.031 289.483 677.344 290.183 676.894C290.892 676.444 291.654 676.219 292.471 676.219C292.662 676.219 292.846 676.231 293.021 676.256C293.204 676.281 293.35 676.323 293.458 676.381V678.619C293.333 678.56 293.171 678.523 292.971 678.506C292.779 678.481 292.617 678.469 292.483 678.469C291.458 678.402 290.579 678.598 289.846 679.056C289.112 679.515 288.746 680.281 288.746 681.356V689.394H286.446ZM301.9 693.419V676.469H304.2L304.225 678.719C304.425 678.369 304.704 678.002 305.062 677.619C305.429 677.227 305.891 676.898 306.45 676.631C307.008 676.356 307.683 676.219 308.475 676.219C310.016 676.219 311.275 676.752 312.25 677.819C313.225 678.885 313.712 680.531 313.712 682.756C313.712 684.973 313.233 686.677 312.275 687.869C311.316 689.052 309.987 689.644 308.287 689.644C307.521 689.644 306.866 689.506 306.325 689.231C305.791 688.948 305.354 688.606 305.012 688.206C304.671 687.806 304.408 687.423 304.225 687.056V693.419H301.9ZM307.85 687.844C308.916 687.844 309.787 687.44 310.462 686.631C311.137 685.815 311.475 684.548 311.475 682.831C311.475 681.365 311.166 680.198 310.55 679.331C309.933 678.456 309.033 678.019 307.85 678.019C306.65 678.019 305.741 678.465 305.125 679.356C304.508 680.248 304.2 681.406 304.2 682.831C304.2 683.756 304.337 684.598 304.612 685.356C304.887 686.115 305.296 686.719 305.837 687.169C306.379 687.619 307.05 687.844 307.85 687.844ZM320.148 689.644C318.889 689.644 317.864 689.315 317.073 688.656C316.281 687.998 315.885 687.077 315.885 685.894C315.885 684.46 316.385 683.394 317.385 682.694C318.385 681.994 319.989 681.619 322.198 681.569L324.51 681.506V680.494C324.51 679.702 324.268 679.077 323.785 678.619C323.31 678.152 322.577 677.919 321.585 677.919C320.843 677.927 320.189 678.106 319.623 678.456C319.056 678.798 318.693 679.352 318.535 680.119H316.498C316.564 678.86 317.056 677.898 317.973 677.231C318.889 676.556 320.131 676.219 321.698 676.219C323.381 676.219 324.639 676.573 325.473 677.281C326.314 677.99 326.735 679.019 326.735 680.369V689.394H324.76L324.598 686.969C324.089 687.977 323.452 688.677 322.685 689.069C321.918 689.452 321.073 689.644 320.148 689.644ZM320.848 687.981C321.423 687.981 321.989 687.844 322.548 687.569C323.114 687.294 323.581 686.944 323.948 686.519C324.314 686.085 324.502 685.627 324.51 685.144V682.931L322.585 682.969C321.102 682.994 319.989 683.215 319.248 683.631C318.506 684.04 318.135 684.719 318.135 685.669C318.135 686.402 318.385 686.973 318.885 687.381C319.393 687.781 320.048 687.981 320.848 687.981ZM330.684 689.394V676.469H332.921V678.344C333.238 677.802 333.734 677.323 334.409 676.906C335.084 676.49 335.938 676.281 336.971 676.281C337.788 676.281 338.538 676.444 339.221 676.769C339.913 677.094 340.463 677.602 340.871 678.294C341.288 678.977 341.496 679.86 341.496 680.944V689.394H339.184V681.169C339.184 680.16 338.917 679.415 338.384 678.931C337.859 678.44 337.176 678.194 336.334 678.194C335.751 678.194 335.205 678.29 334.696 678.481C334.188 678.665 333.776 678.948 333.459 679.331C333.142 679.706 332.984 680.181 332.984 680.756V689.394H330.684ZM346.763 683.469C346.763 684.285 346.896 685.027 347.163 685.694C347.438 686.352 347.85 686.877 348.4 687.269C348.959 687.66 349.654 687.856 350.488 687.856C351.313 687.856 352.021 687.665 352.613 687.281C353.213 686.898 353.596 686.344 353.763 685.619H355.95C355.792 686.494 355.442 687.231 354.9 687.831C354.359 688.431 353.704 688.885 352.938 689.194C352.171 689.494 351.371 689.644 350.538 689.644C349.329 689.644 348.267 689.381 347.35 688.856C346.434 688.331 345.717 687.577 345.2 686.594C344.684 685.61 344.425 684.431 344.425 683.056C344.425 681.698 344.659 680.506 345.125 679.481C345.592 678.456 346.267 677.656 347.15 677.081C348.042 676.506 349.113 676.219 350.363 676.219C352.188 676.219 353.588 676.798 354.563 677.956C355.538 679.106 356.025 680.66 356.025 682.619V683.469H346.763ZM346.775 681.906H353.8C353.8 680.798 353.517 679.865 352.95 679.106C352.384 678.348 351.517 677.969 350.35 677.969C349.542 677.969 348.871 678.165 348.338 678.556C347.804 678.94 347.409 679.435 347.15 680.044C346.892 680.644 346.767 681.265 346.775 681.906ZM362.462 689.556C361.529 689.556 360.829 689.394 360.362 689.069C359.895 688.735 359.583 688.306 359.425 687.781C359.275 687.248 359.2 686.677 359.2 686.069V670.819H361.475V685.844C361.475 686.502 361.6 686.994 361.85 687.319C362.108 687.635 362.466 687.81 362.925 687.844L363.625 687.856V689.356C363.208 689.49 362.82 689.556 362.462 689.556Z" fill="white"/>
<path d="M470.135 683.469C470.135 684.285 470.269 685.027 470.535 685.694C470.81 686.352 471.223 686.877 471.773 687.269C472.331 687.66 473.027 687.856 473.86 687.856C474.685 687.856 475.394 687.665 475.985 687.281C476.585 686.898 476.969 686.344 477.135 685.619H479.323C479.164 686.494 478.814 687.231 478.273 687.831C477.731 688.431 477.077 688.885 476.31 689.194C475.544 689.494 474.744 689.644 473.91 689.644C472.702 689.644 471.639 689.381 470.723 688.856C469.806 688.331 469.089 687.577 468.573 686.594C468.056 685.61 467.798 684.431 467.798 683.056C467.798 681.698 468.031 680.506 468.498 679.481C468.964 678.456 469.639 677.656 470.523 677.081C471.414 676.506 472.485 676.219 473.735 676.219C475.56 676.219 476.96 676.798 477.935 677.956C478.91 679.106 479.398 680.66 479.398 682.619V683.469H470.135ZM470.148 681.906H477.173C477.173 680.798 476.889 679.865 476.323 679.106C475.756 678.348 474.889 677.969 473.723 677.969C472.914 677.969 472.244 678.165 471.71 678.556C471.177 678.94 470.781 679.435 470.523 680.044C470.264 680.644 470.139 681.265 470.148 681.906ZM482.572 689.394V676.469H484.81V678.344C485.126 677.802 485.622 677.323 486.297 676.906C486.972 676.49 487.826 676.281 488.86 676.281C489.676 676.281 490.426 676.444 491.11 676.769C491.801 677.094 492.351 677.602 492.76 678.294C493.176 678.977 493.385 679.86 493.385 680.944V689.394H491.072V681.169C491.072 680.16 490.806 679.415 490.272 678.931C489.747 678.44 489.064 678.194 488.222 678.194C487.639 678.194 487.093 678.29 486.585 678.481C486.076 678.665 485.664 678.948 485.347 679.331C485.031 679.706 484.872 680.181 484.872 680.756V689.394H482.572ZM498.651 683.469C498.651 684.285 498.784 685.027 499.051 685.694C499.326 686.352 499.738 686.877 500.288 687.269C500.847 687.66 501.543 687.856 502.376 687.856C503.201 687.856 503.909 687.665 504.501 687.281C505.101 686.898 505.484 686.344 505.651 685.619H507.838C507.68 686.494 507.33 687.231 506.788 687.831C506.247 688.431 505.593 688.885 504.826 689.194C504.059 689.494 503.259 689.644 502.426 689.644C501.218 689.644 500.155 689.381 499.238 688.856C498.322 688.331 497.605 687.577 497.088 686.594C496.572 685.61 496.313 684.431 496.313 683.056C496.313 681.698 496.547 680.506 497.013 679.481C497.48 678.456 498.155 677.656 499.038 677.081C499.93 676.506 501.001 676.219 502.251 676.219C504.076 676.219 505.476 676.798 506.451 677.956C507.426 679.106 507.913 680.66 507.913 682.619V683.469H498.651ZM498.663 681.906H505.688C505.688 680.798 505.405 679.865 504.838 679.106C504.272 678.348 503.405 677.969 502.238 677.969C501.43 677.969 500.759 678.165 500.226 678.556C499.693 678.94 499.297 679.435 499.038 680.044C498.78 680.644 498.655 681.265 498.663 681.906ZM511.088 689.394V676.469H513.288V678.956C513.613 678.031 514.125 677.344 514.825 676.894C515.534 676.444 516.296 676.219 517.113 676.219C517.304 676.219 517.488 676.231 517.663 676.256C517.846 676.281 517.992 676.323 518.1 676.381V678.619C517.975 678.56 517.813 678.523 517.613 678.506C517.421 678.481 517.259 678.469 517.125 678.469C516.1 678.402 515.221 678.598 514.488 679.056C513.754 679.515 513.388 680.281 513.388 681.356V689.394H511.088ZM526.23 693.669C524.205 693.669 522.626 693.373 521.493 692.781C520.359 692.198 519.793 691.36 519.793 690.269C519.793 689.802 519.901 689.406 520.118 689.081C520.334 688.748 520.593 688.473 520.893 688.256C521.193 688.04 521.472 687.869 521.73 687.744C521.989 687.61 522.155 687.515 522.23 687.456C522.089 687.373 521.909 687.269 521.693 687.144C521.484 687.019 521.301 686.852 521.143 686.644C520.984 686.435 520.905 686.165 520.905 685.831C520.905 685.423 521.093 685.052 521.468 684.719C521.851 684.377 522.422 684.119 523.18 683.944C522.422 683.569 521.83 683.065 521.405 682.431C520.98 681.79 520.768 681.098 520.768 680.356C520.768 679.098 521.268 678.102 522.268 677.369C523.268 676.635 524.643 676.269 526.393 676.269C527.234 676.269 527.943 676.369 528.518 676.569C529.093 676.76 529.626 677.035 530.118 677.394C530.301 677.319 530.609 677.19 531.043 677.006C531.476 676.823 531.918 676.64 532.368 676.456C532.826 676.265 533.176 676.123 533.418 676.031L533.405 678.169L531.143 678.594C531.426 679.177 531.568 679.765 531.568 680.356C531.568 681.498 531.118 682.465 530.218 683.256C529.326 684.048 527.98 684.444 526.18 684.444C526.08 684.444 525.951 684.444 525.793 684.444C525.643 684.435 525.514 684.427 525.405 684.419C524.514 684.444 523.901 684.544 523.568 684.719C523.243 684.894 523.08 685.081 523.08 685.281C523.08 685.523 523.268 685.69 523.643 685.781C524.018 685.873 524.655 685.952 525.555 686.019C525.88 686.035 526.28 686.06 526.755 686.094C527.23 686.119 527.764 686.148 528.355 686.181C529.714 686.265 530.759 686.61 531.493 687.219C532.226 687.827 532.593 688.648 532.593 689.681C532.593 690.856 532.068 691.815 531.018 692.556C529.968 693.298 528.372 693.669 526.23 693.669ZM526.243 682.956C527.176 682.956 527.926 682.74 528.493 682.306C529.068 681.873 529.355 681.231 529.355 680.381C529.355 679.515 529.068 678.852 528.493 678.394C527.926 677.927 527.176 677.694 526.243 677.694C525.301 677.694 524.539 677.927 523.955 678.394C523.38 678.852 523.093 679.515 523.093 680.381C523.093 681.198 523.368 681.831 523.918 682.281C524.468 682.731 525.243 682.956 526.243 682.956ZM526.643 692.181C527.834 692.181 528.747 692.002 529.38 691.644C530.014 691.285 530.33 690.744 530.33 690.019C530.33 689.51 530.134 689.09 529.743 688.756C529.359 688.423 528.772 688.231 527.98 688.181L524.355 687.944C524.03 687.927 523.693 688.01 523.343 688.194C522.993 688.369 522.693 688.615 522.443 688.931C522.201 689.248 522.08 689.606 522.08 690.006C522.08 690.698 522.451 691.231 523.193 691.606C523.934 691.99 525.084 692.181 526.643 692.181ZM537.827 693.519C537.068 693.519 536.547 693.465 536.264 693.356C535.981 693.248 535.839 693.194 535.839 693.194V691.694L537.152 691.719C537.793 691.744 538.289 691.681 538.639 691.531C538.997 691.381 539.26 691.194 539.427 690.969C539.593 690.744 539.722 690.523 539.814 690.306L540.264 689.081L535.214 676.469H537.552L541.364 686.444L545.152 676.469H547.414L541.964 690.369C541.464 691.602 540.872 692.435 540.189 692.869C539.506 693.302 538.718 693.519 537.827 693.519ZM560.133 689.644C559.225 689.644 558.387 689.502 557.621 689.219C556.854 688.935 556.212 688.502 555.696 687.919C555.187 687.327 554.871 686.565 554.746 685.631H556.846C557.012 686.39 557.392 686.96 557.983 687.344C558.583 687.727 559.296 687.919 560.121 687.919C560.987 687.919 561.687 687.756 562.221 687.431C562.754 687.106 563.021 686.606 563.021 685.931C563.021 685.023 562.45 684.431 561.308 684.156L558.633 683.494C557.583 683.244 556.746 682.852 556.121 682.319C555.504 681.785 555.196 681.04 555.196 680.081C555.187 678.948 555.596 678.023 556.421 677.306C557.246 676.581 558.479 676.219 560.121 676.219C561.521 676.219 562.65 676.535 563.508 677.169C564.375 677.802 564.825 678.723 564.858 679.931H562.821C562.729 679.315 562.45 678.827 561.983 678.469C561.517 678.102 560.887 677.919 560.096 677.919C559.271 677.919 558.6 678.085 558.083 678.419C557.567 678.744 557.308 679.252 557.308 679.944C557.308 680.402 557.492 680.765 557.858 681.031C558.225 681.29 558.767 681.506 559.483 681.681L562.071 682.331C562.862 682.54 563.479 682.835 563.921 683.219C564.362 683.602 564.671 684.023 564.846 684.481C565.021 684.94 565.108 685.381 565.108 685.806C565.108 686.998 564.671 687.935 563.796 688.619C562.921 689.302 561.7 689.644 560.133 689.644ZM574.637 678.156H571.724V686.194C571.724 686.885 571.833 687.31 572.049 687.469C572.274 687.619 572.691 687.694 573.299 687.694H574.712V689.244C574.545 689.302 574.303 689.352 573.987 689.394C573.67 689.435 573.274 689.456 572.799 689.456C571.458 689.456 570.553 689.185 570.087 688.644C569.628 688.102 569.399 687.31 569.399 686.269V678.156H567.299V676.469H569.462L570.024 672.706H571.724V676.456H574.637V678.156ZM582.754 689.644C580.962 689.644 579.524 689.073 578.441 687.931C577.358 686.79 576.816 685.14 576.816 682.981C576.816 681.631 577.045 680.448 577.504 679.431C577.962 678.415 578.633 677.627 579.516 677.069C580.399 676.502 581.479 676.219 582.754 676.219C584.537 676.219 585.962 676.802 587.029 677.969C588.095 679.135 588.629 680.806 588.629 682.981C588.629 684.298 588.404 685.456 587.954 686.456C587.512 687.456 586.854 688.24 585.979 688.806C585.112 689.365 584.037 689.644 582.754 689.644ZM582.754 687.819C583.912 687.819 584.799 687.385 585.416 686.519C586.033 685.644 586.341 684.448 586.341 682.931C586.341 682.006 586.216 681.177 585.966 680.444C585.724 679.702 585.341 679.115 584.816 678.681C584.291 678.248 583.604 678.031 582.754 678.031C581.579 678.031 580.679 678.465 580.054 679.331C579.429 680.19 579.116 681.39 579.116 682.931C579.116 683.84 579.241 684.665 579.491 685.406C579.741 686.148 580.133 686.735 580.666 687.169C581.199 687.602 581.895 687.819 582.754 687.819ZM591.654 689.394V676.469H593.854V678.956C594.179 678.031 594.692 677.344 595.392 676.894C596.1 676.444 596.863 676.219 597.679 676.219C597.871 676.219 598.054 676.231 598.229 676.256C598.413 676.281 598.558 676.323 598.667 676.381V678.619C598.542 678.56 598.379 678.523 598.179 678.506C597.988 678.481 597.825 678.469 597.692 678.469C596.667 678.402 595.788 678.598 595.054 679.056C594.321 679.515 593.954 680.281 593.954 681.356V689.394H591.654ZM604.604 689.644C603.346 689.644 602.321 689.315 601.529 688.656C600.738 687.998 600.342 687.077 600.342 685.894C600.342 684.46 600.842 683.394 601.842 682.694C602.842 681.994 604.446 681.619 606.654 681.569L608.967 681.506V680.494C608.967 679.702 608.725 679.077 608.242 678.619C607.767 678.152 607.033 677.919 606.042 677.919C605.3 677.927 604.646 678.106 604.079 678.456C603.513 678.798 603.15 679.352 602.992 680.119H600.954C601.021 678.86 601.513 677.898 602.429 677.231C603.346 676.556 604.588 676.219 606.154 676.219C607.838 676.219 609.096 676.573 609.929 677.281C610.771 677.99 611.192 679.019 611.192 680.369V689.394H609.217L609.054 686.969C608.546 687.977 607.908 688.677 607.142 689.069C606.375 689.452 605.529 689.644 604.604 689.644ZM605.304 687.981C605.879 687.981 606.446 687.844 607.004 687.569C607.571 687.294 608.038 686.944 608.404 686.519C608.771 686.085 608.958 685.627 608.967 685.144V682.931L607.042 682.969C605.558 682.994 604.446 683.215 603.704 683.631C602.963 684.04 602.592 684.719 602.592 685.669C602.592 686.402 602.842 686.973 603.342 687.381C603.85 687.781 604.504 687.981 605.304 687.981ZM620.591 693.669C618.566 693.669 616.986 693.373 615.853 692.781C614.72 692.198 614.153 691.36 614.153 690.269C614.153 689.802 614.261 689.406 614.478 689.081C614.695 688.748 614.953 688.473 615.253 688.256C615.553 688.04 615.832 687.869 616.091 687.744C616.349 687.61 616.516 687.515 616.591 687.456C616.449 687.373 616.27 687.269 616.053 687.144C615.845 687.019 615.661 686.852 615.503 686.644C615.345 686.435 615.266 686.165 615.266 685.831C615.266 685.423 615.453 685.052 615.828 684.719C616.211 684.377 616.782 684.119 617.541 683.944C616.782 683.569 616.191 683.065 615.766 682.431C615.341 681.79 615.128 681.098 615.128 680.356C615.128 679.098 615.628 678.102 616.628 677.369C617.628 676.635 619.003 676.269 620.753 676.269C621.595 676.269 622.303 676.369 622.878 676.569C623.453 676.76 623.986 677.035 624.478 677.394C624.661 677.319 624.97 677.19 625.403 677.006C625.836 676.823 626.278 676.64 626.728 676.456C627.186 676.265 627.536 676.123 627.778 676.031L627.766 678.169L625.503 678.594C625.786 679.177 625.928 679.765 625.928 680.356C625.928 681.498 625.478 682.465 624.578 683.256C623.686 684.048 622.341 684.444 620.541 684.444C620.441 684.444 620.311 684.444 620.153 684.444C620.003 684.435 619.874 684.427 619.766 684.419C618.874 684.444 618.261 684.544 617.928 684.719C617.603 684.894 617.441 685.081 617.441 685.281C617.441 685.523 617.628 685.69 618.003 685.781C618.378 685.873 619.016 685.952 619.916 686.019C620.241 686.035 620.641 686.06 621.116 686.094C621.591 686.119 622.124 686.148 622.716 686.181C624.074 686.265 625.12 686.61 625.853 687.219C626.586 687.827 626.953 688.648 626.953 689.681C626.953 690.856 626.428 691.815 625.378 692.556C624.328 693.298 622.732 693.669 620.591 693.669ZM620.603 682.956C621.536 682.956 622.286 682.74 622.853 682.306C623.428 681.873 623.716 681.231 623.716 680.381C623.716 679.515 623.428 678.852 622.853 678.394C622.286 677.927 621.536 677.694 620.603 677.694C619.661 677.694 618.899 677.927 618.316 678.394C617.741 678.852 617.453 679.515 617.453 680.381C617.453 681.198 617.728 681.831 618.278 682.281C618.828 682.731 619.603 682.956 620.603 682.956ZM621.003 692.181C622.195 692.181 623.107 692.002 623.741 691.644C624.374 691.285 624.691 690.744 624.691 690.019C624.691 689.51 624.495 689.09 624.103 688.756C623.72 688.423 623.132 688.231 622.341 688.181L618.716 687.944C618.391 687.927 618.053 688.01 617.703 688.194C617.353 688.369 617.053 688.615 616.803 688.931C616.561 689.248 616.441 689.606 616.441 690.006C616.441 690.698 616.811 691.231 617.553 691.606C618.295 691.99 619.445 692.181 621.003 692.181ZM631.903 683.469C631.903 684.285 632.036 685.027 632.303 685.694C632.578 686.352 632.99 686.877 633.54 687.269C634.099 687.66 634.794 687.856 635.628 687.856C636.453 687.856 637.161 687.665 637.753 687.281C638.353 686.898 638.736 686.344 638.903 685.619H641.09C640.932 686.494 640.582 687.231 640.04 687.831C639.499 688.431 638.844 688.885 638.078 689.194C637.311 689.494 636.511 689.644 635.678 689.644C634.469 689.644 633.407 689.381 632.49 688.856C631.574 688.331 630.857 687.577 630.34 686.594C629.824 685.61 629.565 684.431 629.565 683.056C629.565 681.698 629.799 680.506 630.265 679.481C630.732 678.456 631.407 677.656 632.29 677.081C633.182 676.506 634.253 676.219 635.503 676.219C637.328 676.219 638.728 676.798 639.703 677.956C640.678 679.106 641.165 680.66 641.165 682.619V683.469H631.903ZM631.915 681.906H638.94C638.94 680.798 638.657 679.865 638.09 679.106C637.524 678.348 636.657 677.969 635.49 677.969C634.682 677.969 634.011 678.165 633.478 678.556C632.944 678.94 632.549 679.435 632.29 680.044C632.032 680.644 631.907 681.265 631.915 681.906Z" fill="white"/>
<path d="M759.331 683.075C759.331 683.892 759.464 684.633 759.731 685.3C760.006 685.958 760.418 686.483 760.968 686.875C761.526 687.267 762.222 687.462 763.056 687.462C763.881 687.462 764.589 687.271 765.181 686.887C765.781 686.504 766.164 685.95 766.331 685.225H768.518C768.36 686.1 768.01 686.837 767.468 687.438C766.926 688.037 766.272 688.492 765.506 688.8C764.739 689.1 763.939 689.25 763.106 689.25C761.897 689.25 760.835 688.988 759.918 688.462C759.001 687.937 758.285 687.183 757.768 686.2C757.251 685.217 756.993 684.037 756.993 682.662C756.993 681.304 757.226 680.112 757.693 679.087C758.16 678.062 758.835 677.262 759.718 676.687C760.61 676.112 761.681 675.825 762.931 675.825C764.756 675.825 766.156 676.404 767.131 677.562C768.106 678.712 768.593 680.267 768.593 682.225V683.075H759.331ZM759.343 681.512H766.368C766.368 680.404 766.085 679.471 765.518 678.712C764.951 677.954 764.085 677.575 762.918 677.575C762.11 677.575 761.439 677.771 760.906 678.162C760.372 678.546 759.976 679.042 759.718 679.65C759.46 680.25 759.335 680.871 759.343 681.512ZM775.03 689.163C774.097 689.163 773.397 689 772.93 688.675C772.463 688.342 772.151 687.912 771.992 687.387C771.842 686.854 771.767 686.283 771.767 685.675V670.425H774.042V685.45C774.042 686.108 774.167 686.6 774.417 686.925C774.676 687.242 775.034 687.417 775.492 687.45L776.192 687.462V688.962C775.776 689.096 775.388 689.163 775.03 689.163ZM780.644 683.075C780.644 683.892 780.777 684.633 781.044 685.3C781.319 685.958 781.732 686.483 782.282 686.875C782.84 687.267 783.536 687.462 784.369 687.462C785.194 687.462 785.902 687.271 786.494 686.887C787.094 686.504 787.477 685.95 787.644 685.225H789.832C789.673 686.1 789.323 686.837 788.782 687.438C788.24 688.037 787.586 688.492 786.819 688.8C786.052 689.1 785.252 689.25 784.419 689.25C783.211 689.25 782.148 688.988 781.232 688.462C780.315 687.937 779.598 687.183 779.082 686.2C778.565 685.217 778.307 684.037 778.307 682.662C778.307 681.304 778.54 680.112 779.007 679.087C779.473 678.062 780.148 677.262 781.032 676.687C781.923 676.112 782.994 675.825 784.244 675.825C786.069 675.825 787.469 676.404 788.444 677.562C789.419 678.712 789.907 680.267 789.907 682.225V683.075H780.644ZM780.657 681.512H787.682C787.682 680.404 787.398 679.471 786.832 678.712C786.265 677.954 785.398 677.575 784.232 677.575C783.423 677.575 782.752 677.771 782.219 678.162C781.686 678.546 781.29 679.042 781.032 679.65C780.773 680.25 780.648 680.871 780.657 681.512ZM798.231 675.825C799.623 675.825 800.793 676.221 801.743 677.012C802.693 677.796 803.256 678.846 803.431 680.162H801.381C801.264 679.487 800.935 678.908 800.393 678.425C799.852 677.933 799.135 677.687 798.243 677.687C797.143 677.687 796.243 678.087 795.543 678.887C794.852 679.687 794.506 680.912 794.506 682.562C794.506 684.054 794.823 685.25 795.456 686.15C796.098 687.042 797.039 687.487 798.281 687.487C799.164 687.487 799.877 687.237 800.418 686.737C800.96 686.237 801.285 685.662 801.393 685.012H803.406C803.239 686.312 802.677 687.346 801.718 688.112C800.768 688.871 799.606 689.25 798.231 689.25C797.064 689.25 796.035 688.996 795.143 688.487C794.252 687.979 793.552 687.229 793.043 686.237C792.535 685.246 792.281 684.029 792.281 682.587C792.281 681.246 792.51 680.067 792.968 679.05C793.435 678.033 794.11 677.242 794.993 676.675C795.885 676.108 796.964 675.825 798.231 675.825ZM812.709 677.762H809.797V685.8C809.797 686.492 809.905 686.917 810.122 687.075C810.347 687.225 810.763 687.3 811.372 687.3H812.784V688.85C812.617 688.908 812.376 688.958 812.059 689C811.742 689.042 811.347 689.063 810.872 689.063C809.53 689.063 808.626 688.792 808.159 688.25C807.701 687.708 807.472 686.917 807.472 685.875V677.762H805.372V676.075H807.534L808.097 672.312H809.797V676.062H812.709V677.762ZM816.03 689V676.075H818.23V678.562C818.555 677.637 819.068 676.95 819.768 676.5C820.476 676.05 821.239 675.825 822.055 675.825C822.247 675.825 822.43 675.837 822.605 675.863C822.789 675.887 822.934 675.929 823.043 675.987V678.225C822.918 678.167 822.755 678.129 822.555 678.112C822.364 678.087 822.201 678.075 822.068 678.075C821.043 678.008 820.164 678.204 819.43 678.662C818.697 679.121 818.33 679.887 818.33 680.962V689H816.03ZM828.273 670.937V673.337H825.91V670.937H828.273ZM828.223 676.075V689H825.985V676.075H828.223ZM837.44 675.825C838.832 675.825 840.002 676.221 840.952 677.012C841.902 677.796 842.465 678.846 842.64 680.162H840.59C840.473 679.487 840.144 678.908 839.602 678.425C839.061 677.933 838.344 677.687 837.452 677.687C836.352 677.687 835.452 678.087 834.752 678.887C834.061 679.687 833.715 680.912 833.715 682.562C833.715 684.054 834.032 685.25 834.665 686.15C835.307 687.042 836.248 687.487 837.49 687.487C838.373 687.487 839.086 687.237 839.627 686.737C840.169 686.237 840.494 685.662 840.602 685.012H842.615C842.448 686.312 841.886 687.346 840.927 688.112C839.977 688.871 838.815 689.25 837.44 689.25C836.273 689.25 835.244 688.996 834.352 688.487C833.461 687.979 832.761 687.229 832.252 686.237C831.744 685.246 831.49 684.029 831.49 682.587C831.49 681.246 831.719 680.067 832.177 679.05C832.644 678.033 833.319 677.242 834.202 676.675C835.094 676.108 836.173 675.825 837.44 675.825ZM861.286 676.075L856.624 689H854.524L849.849 676.075H852.024L855.461 686.1H855.674L859.124 676.075H861.286ZM864.946 683.075C864.946 683.892 865.079 684.633 865.346 685.3C865.621 685.958 866.033 686.483 866.583 686.875C867.142 687.267 867.837 687.462 868.671 687.462C869.496 687.462 870.204 687.271 870.796 686.887C871.396 686.504 871.779 685.95 871.946 685.225H874.133C873.975 686.1 873.625 686.837 873.083 687.438C872.542 688.037 871.887 688.492 871.121 688.8C870.354 689.1 869.554 689.25 868.721 689.25C867.512 689.25 866.45 688.988 865.533 688.462C864.617 687.937 863.9 687.183 863.383 686.2C862.867 685.217 862.608 684.037 862.608 682.662C862.608 681.304 862.842 680.112 863.308 679.087C863.775 678.062 864.45 677.262 865.333 676.687C866.225 676.112 867.296 675.825 868.546 675.825C870.371 675.825 871.771 676.404 872.746 677.562C873.721 678.712 874.208 680.267 874.208 682.225V683.075H864.946ZM864.958 681.512H871.983C871.983 680.404 871.7 679.471 871.133 678.712C870.567 677.954 869.7 677.575 868.533 677.575C867.725 677.575 867.054 677.771 866.521 678.162C865.987 678.546 865.592 679.042 865.333 679.65C865.075 680.25 864.95 680.871 864.958 681.512ZM877.383 689V670.425H879.633V677.975C879.958 677.442 880.454 676.967 881.12 676.55C881.787 676.125 882.637 675.912 883.67 675.912C884.512 675.912 885.274 676.071 885.958 676.387C886.641 676.696 887.183 677.137 887.583 677.712C887.983 678.287 888.183 678.971 888.183 679.762V689H885.87V680.225C885.87 679.45 885.604 678.854 885.07 678.437C884.545 678.012 883.858 677.8 883.008 677.8C882.424 677.8 881.879 677.896 881.37 678.087C880.87 678.271 880.462 678.554 880.145 678.937C879.837 679.312 879.683 679.792 879.683 680.375V689H877.383ZM894.337 670.937V673.337H891.975V670.937H894.337ZM894.287 676.075V689H892.05V676.075H894.287ZM903.504 675.825C904.896 675.825 906.067 676.221 907.017 677.012C907.967 677.796 908.529 678.846 908.704 680.162H906.654C906.538 679.487 906.209 678.908 905.667 678.425C905.125 677.933 904.409 677.687 903.517 677.687C902.417 677.687 901.517 678.087 900.817 678.887C900.125 679.687 899.779 680.912 899.779 682.562C899.779 684.054 900.096 685.25 900.729 686.15C901.371 687.042 902.313 687.487 903.554 687.487C904.438 687.487 905.15 687.237 905.692 686.737C906.234 686.237 906.559 685.662 906.667 685.012H908.679C908.513 686.312 907.95 687.346 906.992 688.112C906.042 688.871 904.879 689.25 903.504 689.25C902.338 689.25 901.309 688.996 900.417 688.487C899.525 687.979 898.825 687.229 898.317 686.237C897.809 685.246 897.554 684.029 897.554 682.587C897.554 681.246 897.784 680.067 898.242 679.05C898.709 678.033 899.384 677.242 900.267 676.675C901.159 676.108 902.238 675.825 903.504 675.825ZM915.093 689.163C914.16 689.163 913.46 689 912.993 688.675C912.527 688.342 912.214 687.912 912.056 687.387C911.906 686.854 911.831 686.283 911.831 685.675V670.425H914.106V685.45C914.106 686.108 914.231 686.6 914.481 686.925C914.739 687.242 915.098 687.417 915.556 687.45L916.256 687.462V688.962C915.839 689.096 915.452 689.163 915.093 689.163ZM920.708 683.075C920.708 683.892 920.841 684.633 921.108 685.3C921.383 685.958 921.795 686.483 922.345 686.875C922.903 687.267 923.599 687.462 924.433 687.462C925.258 687.462 925.966 687.271 926.558 686.887C927.158 686.504 927.541 685.95 927.708 685.225H929.895C929.737 686.1 929.387 686.837 928.845 687.438C928.303 688.037 927.649 688.492 926.883 688.8C926.116 689.1 925.316 689.25 924.483 689.25C923.274 689.25 922.212 688.988 921.295 688.462C920.378 687.937 919.662 687.183 919.145 686.2C918.628 685.217 918.37 684.037 918.37 682.662C918.37 681.304 918.603 680.112 919.07 679.087C919.537 678.062 920.212 677.262 921.095 676.687C921.987 676.112 923.058 675.825 924.308 675.825C926.133 675.825 927.533 676.404 928.508 677.562C929.483 678.712 929.97 680.267 929.97 682.225V683.075H920.708ZM920.72 681.512H927.745C927.745 680.404 927.462 679.471 926.895 678.712C926.328 677.954 925.462 677.575 924.295 677.575C923.487 677.575 922.816 677.771 922.283 678.162C921.749 678.546 921.353 679.042 921.095 679.65C920.837 680.25 920.712 680.871 920.72 681.512Z" fill="white"/>
<path d="M839.492 54.925C839.558 54.925 839.833 54.925 840.317 54.925C840.8 54.925 841.354 54.9292 841.979 54.9375C842.612 54.9375 843.183 54.9417 843.692 54.95C847.008 55 849.404 55.7833 850.879 57.3C852.354 58.8083 853.092 60.9917 853.092 63.85C853.092 66.85 852.304 69.125 850.729 70.675C849.162 72.225 846.737 73 843.454 73H839.492V54.925ZM841.867 56.9125V71.0125H843.454C844.946 71.0125 846.229 70.7833 847.304 70.325C848.379 69.8583 849.204 69.1042 849.779 68.0625C850.362 67.0208 850.654 65.6292 850.654 63.8875C850.654 62.1458 850.371 60.7667 849.804 59.75C849.246 58.7333 848.437 58.0083 847.379 57.575C846.321 57.1333 845.046 56.9125 843.554 56.9125H841.867ZM858.9 54.9375V57.3375H856.538V54.9375H858.9ZM858.85 60.075V73H856.613V60.075H858.85ZM867.505 73.25C866.597 73.25 865.76 73.1083 864.993 72.825C864.226 72.5417 863.585 72.1083 863.068 71.525C862.56 70.9333 862.243 70.1708 862.118 69.2375H864.218C864.385 69.9958 864.764 70.5667 865.355 70.95C865.955 71.3333 866.668 71.525 867.493 71.525C868.36 71.525 869.06 71.3625 869.593 71.0375C870.126 70.7125 870.393 70.2125 870.393 69.5375C870.393 68.6292 869.822 68.0375 868.68 67.7625L866.005 67.1C864.955 66.85 864.118 66.4583 863.493 65.925C862.876 65.3917 862.568 64.6458 862.568 63.6875C862.56 62.5542 862.968 61.6292 863.793 60.9125C864.618 60.1875 865.851 59.825 867.493 59.825C868.893 59.825 870.022 60.1417 870.88 60.775C871.747 61.4083 872.197 62.3292 872.23 63.5375H870.193C870.101 62.9208 869.822 62.4333 869.355 62.075C868.889 61.7083 868.26 61.525 867.468 61.525C866.643 61.525 865.972 61.6917 865.455 62.025C864.939 62.35 864.68 62.8583 864.68 63.55C864.68 64.0083 864.864 64.3708 865.23 64.6375C865.597 64.8958 866.139 65.1125 866.855 65.2875L869.443 65.9375C870.235 66.1458 870.851 66.4417 871.293 66.825C871.735 67.2083 872.043 67.6292 872.218 68.0875C872.393 68.5458 872.48 68.9875 872.48 69.4125C872.48 70.6042 872.043 71.5417 871.168 72.225C870.293 72.9083 869.072 73.25 867.505 73.25ZM882.009 61.7625H879.096V69.8C879.096 70.4917 879.205 70.9167 879.421 71.075C879.646 71.225 880.063 71.3 880.671 71.3H882.084V72.85C881.917 72.9083 881.676 72.9583 881.359 73C881.042 73.0417 880.646 73.0625 880.171 73.0625C878.83 73.0625 877.926 72.7917 877.459 72.25C877.001 71.7083 876.771 70.9167 876.771 69.875V61.7625H874.671V60.075H876.834L877.396 56.3125H879.096V60.0625H882.009V61.7625ZM885.33 73V60.075H887.53V62.5625C887.855 61.6375 888.367 60.95 889.067 60.5C889.776 60.05 890.538 59.825 891.355 59.825C891.547 59.825 891.73 59.8375 891.905 59.8625C892.088 59.8875 892.234 59.9292 892.342 59.9875V62.225C892.217 62.1667 892.055 62.1292 891.855 62.1125C891.663 62.0875 891.501 62.075 891.367 62.075C890.342 62.0083 889.463 62.2042 888.73 62.6625C887.997 63.1208 887.63 63.8875 887.63 64.9625V73H885.33ZM897.572 54.9375V57.3375H895.21V54.9375H897.572ZM897.522 60.075V73H895.285V60.075H897.522ZM908.148 73.25C907.14 73.25 906.336 73.0792 905.736 72.7375C905.136 72.3958 904.686 71.9958 904.386 71.5375C904.086 71.0792 903.881 70.6833 903.773 70.35L903.523 73H901.761V54.425H904.086V62.125C904.227 61.8417 904.473 61.5208 904.823 61.1625C905.173 60.8042 905.636 60.4917 906.211 60.225C906.794 59.9583 907.498 59.825 908.323 59.825C909.94 59.825 911.223 60.3875 912.173 61.5125C913.131 62.6375 913.611 64.2958 913.611 66.4875C913.611 68.5208 913.152 70.1583 912.236 71.4C911.327 72.6333 909.965 73.25 908.148 73.25ZM907.736 71.475C908.777 71.475 909.627 71.0708 910.286 70.2625C910.952 69.4458 911.286 68.15 911.286 66.375C911.286 64.8667 910.977 63.7 910.361 62.875C909.752 62.0417 908.861 61.625 907.686 61.625C906.402 61.625 905.486 62.0417 904.936 62.875C904.386 63.7 904.102 64.8667 904.086 66.375C904.086 68.1833 904.365 69.4875 904.923 70.2875C905.49 71.0792 906.427 71.475 907.736 71.475ZM921.159 73.25C920.259 73.2417 919.434 73.075 918.684 72.75C917.934 72.4167 917.33 71.925 916.872 71.275C916.422 70.625 916.197 69.8167 916.197 68.85V60.075H918.509V68.6125C918.509 69.4542 918.767 70.1375 919.284 70.6625C919.809 71.1875 920.597 71.45 921.647 71.45C922.597 71.45 923.359 71.2042 923.934 70.7125C924.517 70.2125 924.809 69.4708 924.809 68.4875V60.075H927.109V73H925.272L925.034 70.525C924.801 71.5 924.326 72.2 923.609 72.625C922.892 73.05 922.076 73.2583 921.159 73.25ZM937.453 61.7625H934.541V69.8C934.541 70.4917 934.649 70.9167 934.866 71.075C935.091 71.225 935.507 71.3 936.116 71.3H937.528V72.85C937.362 72.9083 937.12 72.9583 936.803 73C936.487 73.0417 936.091 73.0625 935.616 73.0625C934.274 73.0625 933.37 72.7917 932.903 72.25C932.445 71.7083 932.216 70.9167 932.216 69.875V61.7625H930.116V60.075H932.278L932.841 56.3125H934.541V60.0625H937.453V61.7625ZM943.324 54.9375V57.3375H940.962V54.9375H943.324ZM943.274 60.075V73H941.037V60.075H943.274ZM952.479 73.25C950.688 73.25 949.25 72.6792 948.167 71.5375C947.083 70.3958 946.542 68.7458 946.542 66.5875C946.542 65.2375 946.771 64.0542 947.229 63.0375C947.688 62.0208 948.358 61.2333 949.242 60.675C950.125 60.1083 951.204 59.825 952.479 59.825C954.263 59.825 955.688 60.4083 956.754 61.575C957.821 62.7417 958.354 64.4125 958.354 66.5875C958.354 67.9042 958.129 69.0625 957.679 70.0625C957.238 71.0625 956.579 71.8458 955.704 72.4125C954.838 72.9708 953.763 73.25 952.479 73.25ZM952.479 71.425C953.638 71.425 954.525 70.9917 955.142 70.125C955.758 69.25 956.067 68.0542 956.067 66.5375C956.067 65.6125 955.942 64.7833 955.692 64.05C955.45 63.3083 955.067 62.7208 954.542 62.2875C954.017 61.8542 953.329 61.6375 952.479 61.6375C951.304 61.6375 950.404 62.0708 949.779 62.9375C949.154 63.7958 948.842 64.9958 948.842 66.5375C948.842 67.4458 948.967 68.2708 949.217 69.0125C949.467 69.7542 949.858 70.3417 950.392 70.775C950.925 71.2083 951.621 71.425 952.479 71.425ZM961.38 73V60.075H963.617V61.95C963.934 61.4083 964.43 60.9292 965.105 60.5125C965.78 60.0958 966.634 59.8875 967.667 59.8875C968.484 59.8875 969.234 60.05 969.917 60.375C970.609 60.7 971.159 61.2083 971.567 61.9C971.984 62.5833 972.192 63.4667 972.192 64.55V73H969.88V64.775C969.88 63.7667 969.613 63.0208 969.08 62.5375C968.555 62.0458 967.871 61.8 967.03 61.8C966.446 61.8 965.901 61.8958 965.392 62.0875C964.884 62.2708 964.471 62.5542 964.155 62.9375C963.838 63.3125 963.68 63.7875 963.68 64.3625V73H961.38ZM869.98 83.925H872.292V102H870.23L860.53 87.75V102H858.217V83.925H860.43L869.98 97.975V83.925ZM878.069 96.075C878.069 96.8917 878.202 97.6333 878.469 98.3C878.744 98.9583 879.156 99.4833 879.706 99.875C880.265 100.267 880.961 100.462 881.794 100.462C882.619 100.462 883.327 100.271 883.919 99.8875C884.519 99.5042 884.902 98.95 885.069 98.225H887.256C887.098 99.1 886.748 99.8375 886.206 100.438C885.665 101.037 885.011 101.492 884.244 101.8C883.477 102.1 882.677 102.25 881.844 102.25C880.636 102.25 879.573 101.988 878.656 101.462C877.74 100.937 877.023 100.183 876.506 99.2C875.99 98.2167 875.731 97.0375 875.731 95.6625C875.731 94.3042 875.965 93.1125 876.431 92.0875C876.898 91.0625 877.573 90.2625 878.456 89.6875C879.348 89.1125 880.419 88.825 881.669 88.825C883.494 88.825 884.894 89.4042 885.869 90.5625C886.844 91.7125 887.331 93.2667 887.331 95.225V96.075H878.069ZM878.081 94.5125H885.106C885.106 93.4042 884.823 92.4708 884.256 91.7125C883.69 90.9542 882.823 90.575 881.656 90.575C880.848 90.575 880.177 90.7708 879.644 91.1625C879.111 91.5458 878.715 92.0417 878.456 92.65C878.198 93.25 878.073 93.8708 878.081 94.5125ZM896.657 90.7625H893.745V98.8C893.745 99.4917 893.853 99.9167 894.07 100.075C894.295 100.225 894.711 100.3 895.32 100.3H896.732V101.85C896.566 101.908 896.324 101.958 896.007 102C895.691 102.042 895.295 102.063 894.82 102.063C893.478 102.063 892.574 101.792 892.107 101.25C891.649 100.708 891.42 99.9167 891.42 98.875V90.7625H889.32V89.075H891.482L892.045 85.3125H893.745V89.0625H896.657V90.7625ZM917.076 89.075L913.164 102H910.889L907.939 92.4625L905.139 102H902.876L898.889 89.075H901.026L903.989 99.0125H904.189L907.101 89.075H908.851L911.876 98.9875H912.076L914.914 89.075H917.076ZM924.379 102.25C922.587 102.25 921.149 101.679 920.066 100.537C918.983 99.3958 918.441 97.7458 918.441 95.5875C918.441 94.2375 918.67 93.0542 919.129 92.0375C919.587 91.0208 920.258 90.2333 921.141 89.675C922.024 89.1083 923.104 88.825 924.379 88.825C926.162 88.825 927.587 89.4083 928.654 90.575C929.72 91.7417 930.254 93.4125 930.254 95.5875C930.254 96.9042 930.029 98.0625 929.579 99.0625C929.137 100.062 928.479 100.846 927.604 101.412C926.737 101.971 925.662 102.25 924.379 102.25ZM924.379 100.425C925.537 100.425 926.424 99.9917 927.041 99.125C927.658 98.25 927.966 97.0542 927.966 95.5375C927.966 94.6125 927.841 93.7833 927.591 93.05C927.349 92.3083 926.966 91.7208 926.441 91.2875C925.916 90.8542 925.229 90.6375 924.379 90.6375C923.204 90.6375 922.304 91.0708 921.679 91.9375C921.054 92.7958 920.741 93.9958 920.741 95.5375C920.741 96.4458 920.866 97.2708 921.116 98.0125C921.366 98.7542 921.758 99.3417 922.291 99.775C922.824 100.208 923.52 100.425 924.379 100.425ZM933.279 102V89.075H935.479V91.5625C935.804 90.6375 936.317 89.95 937.017 89.5C937.725 89.05 938.488 88.825 939.304 88.825C939.496 88.825 939.679 88.8375 939.854 88.8625C940.038 88.8875 940.183 88.9292 940.292 88.9875V91.225C940.167 91.1667 940.004 91.1292 939.804 91.1125C939.613 91.0875 939.45 91.075 939.317 91.075C938.292 91.0083 937.413 91.2042 936.679 91.6625C935.946 92.1208 935.579 92.8875 935.579 93.9625V102H933.279ZM954.322 102H951.872L947.822 95.5125L945.272 98.15V102H942.972V83.425H945.272V95.5375L951.347 89.075H953.997L949.334 94L954.322 102Z" fill="white"/>
<rect x="497" y="576.394" width="115" height="54" rx="5" fill="#6C63FF"/>
<rect x="485" y="584.394" width="18" height="40" rx="5" fill="#6C63FF"/>
<rect x="594.496" y="582.898" width="12.1849" height="42.9685" rx="4.5" transform="rotate(0.44171 594.496 582.898)" fill="#31B86F" stroke="white"/>
<rect x="575.835" y="582.504" width="12.1849" height="42.9685" rx="4.5" transform="rotate(0.44171 575.835 582.504)" fill="#31B86F" stroke="white"/>
<rect x="537.835" y="582.504" width="12.1849" height="42.9685" rx="4.5" transform="rotate(0.44171 537.835 582.504)" fill="#31B86F" stroke="white"/>
<rect x="556.835" y="582.504" width="12.1849" height="42.9685" rx="4.5" transform="rotate(0.44171 556.835 582.504)" fill="#31B86F" stroke="white"/>
<path d="M773.375 597.91C773.375 597.91 809.367 575.345 834.251 575.345C834.251 575.345 864.208 570.766 896.793 578.505C929.378 586.243 941.414 596.277 950.448 593.331L912.494 594.422L773.375 597.91Z" fill="#8CD0F3"/>
<path opacity="0.1" d="M773.375 597.91C773.375 597.91 809.367 575.345 834.251 575.345C834.251 575.345 864.208 570.766 896.793 578.505C929.378 586.243 941.414 596.277 950.448 593.331L912.494 594.422L773.375 597.91Z" fill="#8CD0F3"/>
<path d="M943.023 632.445H723.514L729.549 608.718L766.876 598.979L943.023 603.522V632.445Z" fill="#121C3F"/>
<path d="M954.577 617.619V625.192C954.577 625.192 948.06 629.831 947.468 633.463C947.468 633.463 938.136 635.789 935.471 635.789C935.229 635.789 934.965 635.789 934.688 635.816C935.105 634.72 935.43 633.593 935.662 632.445C936.315 629.225 936.233 625.903 935.421 622.718C934.608 619.534 933.086 616.565 930.964 614.027C928.842 611.489 926.172 609.444 923.148 608.04C920.124 606.636 916.819 605.908 913.474 605.908C910.128 605.908 906.824 606.636 903.799 608.04C900.775 609.444 898.105 611.489 895.983 614.027C893.861 616.565 892.339 619.534 891.527 622.718C890.714 625.903 890.632 629.225 891.286 632.445C891.6 633.998 892.083 635.512 892.725 636.964H880.072C880.072 636.964 879.955 637.003 879.765 637.084C879.087 637.385 877.487 638.181 877.257 639.431H772.393L770.244 639.413C770.701 638.66 771.111 637.882 771.472 637.081C772.146 635.598 772.646 634.045 772.964 632.451C773.588 629.408 773.555 626.27 772.868 623.24C772.181 620.21 770.854 617.355 768.973 614.859C767.093 612.363 764.7 610.281 761.949 608.748C759.199 607.215 756.151 606.264 753.003 605.958C749.855 605.651 746.677 605.995 743.673 606.968C740.668 607.94 737.905 609.52 735.561 611.604C733.217 613.689 731.345 616.232 730.064 619.071C728.783 621.909 728.122 624.979 728.124 628.084C728.124 629.547 728.27 631.007 728.56 632.442C729.055 634.873 729.962 637.204 731.243 639.34C729.745 638.982 726.476 637.964 726.476 637.964C726.476 637.964 712.555 636.512 709 633.445L709.537 633.081L711.815 631.554L710.777 627.638C710.652 627.473 710.549 627.292 710.47 627.102C710.194 626.448 709.952 625.234 710.928 623.71C712.407 621.384 711.668 613.101 711.668 613.101C711.668 613.101 731.811 599.44 771.506 596.386C771.506 596.386 772.454 597.109 774.413 597.259C775.739 597.365 777.528 597.205 779.803 596.386C779.803 596.386 783.06 597.837 796.993 589.991C796.993 589.991 820.695 574.002 851.8 575.459C851.8 575.459 883.793 573.568 911.046 583.894C922.79 588.34 931.726 590.71 938.096 591.964C943.977 593.123 947.67 593.337 949.362 593.355H949.399C949.951 593.355 950.28 593.355 950.396 593.355H950.445C950.445 593.355 950.445 596.816 950.633 600.904V600.925C950.7 602.347 950.792 603.844 950.921 605.299V605.389C951.277 609.441 951.891 613.122 952.956 613.851L954.577 617.619Z" fill="#6C63FF"/>
<path d="M714.869 612.769C714.869 612.769 723.793 605.937 734.902 607.392C734.902 607.392 724.794 615.242 720.238 614.733L719.462 614.08L714.857 614.333C714.857 614.333 714.169 613.278 714.869 612.769Z" fill="#8CD0F3"/>
<path opacity="0.2" d="M723.532 624.589V628.623C723.532 628.623 723.225 632.475 719.68 632.62L709.55 633.111L711.824 631.584L710.787 627.668C710.661 627.504 710.558 627.325 710.48 627.135C711.401 626.303 713.571 624.9 717.985 624.598L723.532 624.589Z" fill="white"/>
<path opacity="0.2" d="M770.671 607.685L778.446 607.383C778.446 607.383 775.3 609.817 773.077 610.037C770.855 610.257 770.671 607.685 770.671 607.685Z" fill="white"/>
<path opacity="0.2" d="M787.038 630.831C787.038 630.831 857.356 621.237 874.353 624.288C874.353 624.288 879.351 624.616 881.242 626.577C883.133 628.538 881.242 627.267 881.242 627.267L787.038 630.831Z" fill="white"/>
<path opacity="0.5" d="M826.401 603.904C826.401 603.904 827.291 602.268 828.734 602.232L838.103 601.759C838.103 601.759 837.956 603.031 836.289 603.504L826.401 603.904Z" fill="#F9F9FF"/>
<path opacity="0.5" d="M880.612 601.142C880.612 601.142 881.503 599.506 882.945 599.47L892.314 598.985C892.314 598.985 892.167 600.256 890.5 600.729L880.612 601.142Z" fill="#F9F9FF"/>
<path d="M848.623 578.731L841.434 597.232L815.513 597.259H808.839H803.035H798.016H792.33C792.33 597.259 795.793 594.765 801.371 591.587C803.213 590.533 805.303 589.406 807.572 588.274C809.659 587.225 811.906 586.165 814.267 585.159C816.108 584.364 818.049 583.599 820.032 582.885C829.023 579.659 839.128 577.493 848.623 578.731Z" fill="#8CD0F3"/>
<path d="M889.352 592.241C889.352 592.241 878.522 593.816 868.186 594.982C864.235 595.428 860.358 595.813 857.184 596.027L856.742 596.057C855.514 596.136 854.376 596.187 853.409 596.205C851.874 596.232 850.726 596.166 850.152 595.985L853.138 578.288C853.138 578.288 856.822 578.327 862.271 578.589L863.462 578.652C864.595 578.716 865.789 578.788 867.035 578.872C868.815 578.993 870.691 579.137 872.625 579.312C881.963 580.153 892.541 581.662 899.239 584.379C913.492 590.168 889.352 592.241 889.352 592.241Z" fill="#8CD0F3"/>
<path d="M939.265 601.142V605.865C939.265 605.865 931.49 605.974 933.157 604.449C934.235 603.437 935.215 602.328 936.082 601.136L939.265 601.142Z" fill="#8CD0F3"/>
<path d="M950.915 605.383L944.601 605.868V600.19C944.601 600.19 947.526 596.157 950.451 600.627L950.62 600.889L950.915 605.383Z" fill="#8CD0F3"/>
<path d="M750.77 645.817C760.75 645.817 768.841 637.877 768.841 628.084C768.841 618.29 760.75 610.35 750.77 610.35C740.789 610.35 732.698 618.29 732.698 628.084C732.698 637.877 740.789 645.817 750.77 645.817Z" fill="#182A7C"/>
<path d="M765.265 628.068C765.271 631.728 763.845 635.25 761.281 637.907C758.718 640.564 755.212 642.153 751.488 642.346C747.764 642.539 744.107 641.321 741.272 638.944C738.437 636.567 736.641 633.212 736.254 629.572C735.868 625.933 736.921 622.287 739.196 619.387C741.471 616.488 744.793 614.556 748.478 613.992C752.162 613.428 755.927 614.274 758.994 616.355C762.061 618.437 764.196 621.595 764.958 625.177C765.16 626.128 765.263 627.097 765.265 628.068Z" fill="white"/>
<path opacity="0.5" d="M750.748 640.322C757.63 640.322 763.208 634.835 763.208 628.065C763.208 621.296 757.63 615.809 750.748 615.809C743.867 615.809 738.288 621.296 738.288 628.065C738.288 634.835 743.867 640.322 750.748 640.322Z" fill="#F9F9FF"/>
<path d="M754.917 614.384V614.902L750.77 628.376L747.442 614.161C749.911 613.596 752.487 613.673 754.917 614.384V614.384Z" fill="white"/>
<path d="M754.886 641.759C752.511 642.449 749.995 642.534 747.577 642.006L750.767 628.376L754.886 641.759Z" fill="white"/>
<path d="M765.265 628.068C765.267 629.555 765.033 631.033 764.571 632.448H764.513L750.782 628.379L764.982 625.18C765.176 626.131 765.27 627.099 765.265 628.068Z" fill="white"/>
<path d="M750.77 628.376L737.039 632.445H736.931C736.167 630.093 736.03 627.587 736.535 625.168L750.77 628.376Z" fill="white"/>
<path d="M750.748 629.629C751.628 629.629 752.341 628.929 752.341 628.065C752.341 627.202 751.628 626.502 750.748 626.502C749.868 626.502 749.155 627.202 749.155 628.065C749.155 628.929 749.868 629.629 750.748 629.629Z" fill="#182A7C"/>
<path d="M913.363 645.817C923.344 645.817 931.435 637.877 931.435 628.084C931.435 618.29 923.344 610.35 913.363 610.35C903.383 610.35 895.292 618.29 895.292 628.084C895.292 637.877 903.383 645.817 913.363 645.817Z" fill="#182A7C"/>
<path d="M927.861 628.068C927.868 631.728 926.442 635.25 923.878 637.907C921.314 640.564 917.808 642.153 914.084 642.346C910.361 642.539 906.704 641.321 903.869 638.944C901.034 636.567 899.237 633.212 898.851 629.572C898.465 625.933 899.518 622.287 901.793 619.387C904.067 616.488 907.39 614.556 911.075 613.992C914.759 613.428 918.523 614.274 921.59 616.355C924.657 618.437 926.792 621.595 927.554 625.177C927.757 626.128 927.86 627.097 927.861 628.068Z" fill="white"/>
<path opacity="0.5" d="M913.345 640.322C920.226 640.322 925.805 634.835 925.805 628.065C925.805 621.296 920.226 615.809 913.345 615.809C906.463 615.809 900.885 621.296 900.885 628.065C900.885 634.835 906.463 640.322 913.345 640.322Z" fill="#F9F9FF"/>
<path d="M917.51 614.384V614.902L913.363 628.376L910.036 614.161C912.505 613.596 915.081 613.673 917.51 614.384V614.384Z" fill="white"/>
<path d="M917.483 641.759C915.107 642.449 912.592 642.534 910.174 642.006L913.363 628.376L917.483 641.759Z" fill="white"/>
<path d="M927.862 628.069C927.864 629.555 927.63 631.033 927.168 632.448H927.097L913.363 628.376L927.564 625.177C927.762 626.128 927.862 627.097 927.862 628.069V628.069Z" fill="white"/>
<path d="M913.363 628.376L899.632 632.445H899.525C898.76 630.093 898.624 627.587 899.129 625.168L913.363 628.376Z" fill="white"/>
<path d="M913.345 629.629C914.225 629.629 914.938 628.929 914.938 628.065C914.938 627.202 914.225 626.502 913.345 626.502C912.465 626.502 911.752 627.202 911.752 628.065C911.752 628.929 912.465 629.629 913.345 629.629Z" fill="#182A7C"/>
<path opacity="0.2" d="M807.575 588.292L803.035 597.271H798.016L801.371 591.605C803.222 590.551 805.306 589.427 807.575 588.292Z" fill="white"/>
<path opacity="0.2" d="M820.032 582.903L815.51 597.262H808.836L814.27 585.171C816.124 584.382 818.052 583.623 820.032 582.903Z" fill="white"/>
<path opacity="0.2" d="M867.041 578.887L857.191 596.03L856.748 596.06C855.521 596.139 854.382 596.19 853.415 596.208L862.277 578.607L863.468 578.67C864.585 578.731 865.789 578.803 867.041 578.887Z" fill="white"/>
<path opacity="0.2" d="M792.502 597.211L786.879 635.223L833.848 634.213L841.56 597.377L792.502 597.211Z" stroke="white" stroke-miterlimit="10"/>
<path opacity="0.5" d="M879.768 637.072C879.09 637.373 877.49 638.169 877.26 639.419H772.393L770.244 639.401C770.701 638.648 771.111 637.87 771.472 637.069L879.768 637.072Z" fill="#F9F9FF"/>
<path opacity="0.1" d="M835.838 621.077H835.73C835.73 621.077 839.26 620.143 835.838 621.077Z" fill="black"/>
<path opacity="0.1" d="M865.021 638.521V639.033C864.981 638.865 864.981 638.689 865.021 638.521V638.521Z" fill="black"/>
</g>
<defs>
<filter id="filter0_d" x="230.959" y="550" width="130.083" height="119.788" filterUnits="userSpaceOnUse" color-interpolation-filters="sRGB">
<feFlood flood-opacity="0" result="BackgroundImageFix"/>
<feColorMatrix in="SourceAlpha" type="matrix" values="0 0 0 0 0 0 0 0 0 0 0 0 0 0 0 0 0 0 127 0"/>
<feOffset dy="4"/>
<feGaussianBlur stdDeviation="2"/>
<feColorMatrix type="matrix" values="0 0 0 0 0 0 0 0 0 0 0 0 0 0 0 0 0 0 0.25 0"/>
<feBlend mode="normal" in2="BackgroundImageFix" result="effect1_dropShadow"/>
<feBlend mode="normal" in="SourceGraphic" in2="effect1_dropShadow" result="shape"/>
</filter>
<clipPath id="clip0">
<rect width="980.494" height="751.895" fill="white"/>
</clipPath>
</defs>
</svg>
